#!OML:ASF F:\VICON\USERDATA\INSTALL\rory3\rory3.ASF
:FULLY-SPECIFIED
:DEGREES
1
root -7.18770285038632 17.600812611736963 1.9487569164145433 -88.53420177346948 87.79647622785683 -103.74000078331179
lfemur -29.827492268606008 9.513024379780951 -9.538716753706165
ltibia 32.974497270521226
lfoot -13.76928317968419 -5.457535686145354
ltoes -20.889492620046635
rfemur -30.204490210908123 -2.7026960942557534 9.40811457193097
rtibia 32.851592879107386
rfoot -11.467888708496885 -7.571590504021054
rtoes -5.540351116923254
lowerback 2.4828525575505056 2.3910502545197128 -1.9967488798398811
upperback 2.30142998650675 3.2222002707911694 4.1781543736758175
thorax 0.6268425008842686 1.599239958374742 5.368413806110526
lowerneck -13.833094199266986 -2.6029395511041757 -0.0895888723340503
upperneck 41.953074539479914 0.11050649106473553 -3.6867995567074883
head 17.930372723180863 0.2556948923807416 -1.4473962171462178
lclavicle -7.014205151883568e-15 -5.153636109557328e-15
lhumerus -5.195959575920767 -49.20429169830966 105.92598012259285
lradius 20.124412197340913
lwrist 24.145598952469427
lhand 2.206768075374626 68.88747522117727
lfingers 7.125020000000003
lthumb -152.29801196371733 83.1329173294668
rclavicle -7.014205151883568e-15 -5.153636109557328e-15
rhumerus -7.877177369371161 -2.548354994320297 -103.17298276705586
rradius 25.75001346101621
rwrist -47.509785575450906
rhand -22.647814090920317 -10.150679343660542
rfingers 7.125020000000003
rthumb 3.7832271108468163 -40.096781245545955
2
root -7.21283247090822 17.58411356137349 2.0084866618930883 -51.835004529655514 87.26327564756848 -67.0038067331117
lfemur -29.497492801355108 10.485894033270242 -9.075637182646382
ltibia 33.21169679628027
lfoot -14.010483092328016 -4.567785797916917
ltoes -22.98719085642286
rfemur -31.155689909003907 -1.5589173150941087 9.764513673149342
rtibia 33.53449179815704
rfoot -11.680688473348406 -6.5229709728256875
rtoes -4.317262023387727
lowerback 2.8492219470545788 2.71022993496032 -2.5991684161743005
upperback 2.267329954688182 3.629379973696324 4.014884682723166
thorax 0.31746030348378995 1.8020596532118542 5.50609341975812
lowerneck -13.821994150271356 -2.350089738879727 -0.07764410849058412
upperneck 41.90207634904271 0.41097329992387266 -3.536939728437549
head 17.907572759832966 0.38808878588396456 -1.32602727169581
lclavicle -7.01420497449384e-15 -5.153636302736197e-15
lhumerus -4.7851615674660195 -54.17659137077274 104.24997728929588
lradius 20.607010005255262
lwrist 26.490697637414915
lhand 5.030586155503526 67.9218746331795
lfingers 7.125020000000003
lthumb -149.60101383052378 84.5639155581299
rclavicle -7.01420497449384e-15 -5.153636302736197e-15
rhumerus -8.526258050563378 -2.6812944422292855 -103.92298064754559
rradius 27.252511948805342
rwrist -48.44368441999497
rhand -23.94431241191019 -10.303780558944887
rfingers 7.125020000000003
rthumb 2.5311268087542835 -40.26848053315841
3
root -7.238602070623747 17.57891384232625 2.077296463691412 -26.231308333272523 85.82857738410996 -41.193910505570386
lfemur -28.657092935027606 11.219193695288562 -8.704597539022526
ltibia 33.156296870647694
lfoot -13.942785294582048 -3.0856667391151618
ltoes -23.853090160826664
rfemur -32.04438958809253 -0.39844969042834 9.978173777933561
rtibia 34.182390945100416
rfoot -11.626187208602916 -5.337551159980839
rtoes -4.646582562027277
lowerback 3.3358113259436255 2.980369641428491 -3.6551075695079946
upperback 2.298579950942405 3.951349735006512 3.893174946955905
thorax -0.018544030238260456 1.9597294023987697 5.938882635326561
lowerneck -13.745894356356052 -1.994789939426666 -0.33001895455093033
upperneck 41.768176116855294 1.0090591458627314 -3.542129730304878
head 17.832473551966352 0.5724047010784303 -1.173628618383756
lclavicle -7.014205544674055e-15 -5.153636320706609e-15
lhumerus -4.228041605902277 -59.750986981946355 102.31197988680196
lradius 21.87691027357027
lwrist 30.331295146482542
lhand 6.338415353935867 69.01917384233444
lfingers 7.125020000000003
lthumb -148.35401496531733 83.70452739821843
rclavicle -7.014205544674055e-15 -5.153636320706609e-15
rhumerus -8.916786446681606 -2.6074553851014013 -104.50698058240286
rradius 28.291612933776847
rwrist -49.10708663218952
rhand -26.33011009349455 -10.393079643224926
rfingers 7.125020000000003
rthumb 0.22690062532420896 -40.372679479714606
4
root -7.269971594489712 17.579813783904104 2.152026153601947 -15.362308477105898 83.91117852153499 -30.08621462514006
lfemur -27.51339457103514 11.377193213992788 -8.071838107889564
ltibia 32.92619720909535
lfoot -13.719585305855258 -1.1607382042748284
ltoes -24.020290985965712
rfemur -32.761988714919624 0.6861550462444904 10.391612991070337
rtibia 34.56869081994079
rfoot -11.380787620896053 -4.32922187436991
rtoes -2.746703452036712
lowerback 3.59171095439528 3.1233795105519326 -4.511046967870247
upperback 2.5673195248982372 4.1044396173257045 3.617905549150497
thorax 0.059766903660954274 2.019279323568827 6.1235323215934
lowerneck -13.763894417940566 -1.3830302889235173 -0.32937295689419654
upperneck 41.30587750706679 1.8666587383407558 -3.6067696571716548
head 17.59767405654896 0.8759853602468435 -1.04752971378415
lclavicle -7.014204947568974e-15 -5.153636105064781e-15
lhumerus -2.4166123777379767 -64.54528624486538 99.22298258310857
lradius 23.003209733263123
lwrist 32.89459432641832
lhand 9.678692266470316 67.56657276110845
lfingers 7.125020000000003
lthumb -145.178018239335 85.83591644685015
rclavicle -7.014204947568974e-15 -5.153636105064781e-15
rhumerus -8.678116451188117 -3.7014844086180467 -105.04298034935043
rradius 29.10571153029089
rwrist -49.51908538511219
rhand -30.348208536051565 -10.149380255454673
rfingers 7.125020000000003
rthumb -3.6537684165050752 -40.097879067078004
5
root -7.301761115563492 17.58171369594185 2.2362858190762767 -9.041853977356183 81.6823808908662 -23.59351098020433
lfemur -26.400795334932468 11.869392797589118 -7.595368577030717
ltibia 32.66649755091683
lfoot -13.391284777426463 1.0578715968385666
ltoes -25.908789563300164
rfemur -33.48858728637866 1.4841091343285062 10.876612172670441
rtibia 34.77549031370811
rfoot -11.128587366458687 -2.7880723891159587
rtoes -2.0714241796916895
lowerback 3.5494907111042027 3.108829530801837 -5.98503566834445
upperback 3.0017493554065595 4.049539677418374 3.4961358334101464
thorax 0.45733284406286456 1.950559415697505 6.8571909467728975
lowerneck -14.170993507908015 -0.5199317517919919 -0.059251475717505386
upperneck 40.865877635727664 3.149368162967483 -4.022599108443932
head 17.512073876329552 1.3348479077617865 -1.0573196272532506
lclavicle -7.0142049665748545e-15 -5.153636100572235e-15
lhumerus 1.3110978315957738 -68.60188790095414 94.87688338062776
lradius 23.825308694314316
lwrist 35.02929265097153
lhand 10.543181335130976 66.47167691095007
lfingers 7.125020000000003
lthumb -144.35901874378203 87.12452204940439
rclavicle -7.0142049665748545e-15 -5.153636100572235e-15
rhumerus -8.366266220452665 -3.231434035061435 -105.16098023511742
rradius 30.235612047197236
rwrist -50.735883979501
rhand -28.976709408916726 -10.91428031832439
rfingers 7.125020000000003
rthumb -2.329219422966739 -40.881277542052715
6
root -7.333280602570418 17.58841331761884 2.3299155067616413 -7.9792393235262296 79.16598076607843 -22.68141310495797
lfemur -25.590295856871734 12.488992252580788 -6.468729649234849
ltibia 32.42889791901094
lfoot -13.060884568592538 3.1724709333017778
ltoes -28.040389974839865
rfemur -34.28368809041935 2.345708150000194 12.037711158036576
rtibia 34.59449062550776
rfoot -10.841687236606143 -0.916041061196311
rtoes -0.7592395358888169
lowerback 3.5022809224871017 2.9397997012620305 -6.809275154794274
upperback 3.0826787117452294 3.8031398495521906 3.317126164285785
thorax 0.5725786710338792 1.8074396343069037 7.157940286089485
lowerneck -14.195193465828506 0.47313654682075956 0.09314412048793969
upperneck 40.45747707648895 4.517077685438641 -4.055599086845079
head 17.344074623136038 1.8718175689092722 -0.8532584231388518
lclavicle -7.0142051178311454e-15 -5.153635980396535e-15
lhumerus 5.587727285004377 -72.35928642142247 90.07448755915063
lradius 24.590208930347295
lwrist 36.58839134253144
lhand 11.881680144668694 64.63967676272347
lfingers 7.125020000000003
lthumb -143.09101920775043 89.27231628927393
rclavicle -7.0142051178311454e-15 -5.153635980396535e-15
rhumerus -8.4169957146975 -3.3450750690461177 -105.1289801231776
rradius 31.565012341477768
rwrist -52.08098483079334
rhand -31.97080784700669 -11.258379934399322
rfingers 7.125020000000003
rthumb -5.220567416570553 -41.1739776733833
7
root -7.364910119190682 17.58871329814479 2.422725171229346 -7.362408502647469 76.49068208043573 -22.305712871019438
lfemur -24.663496745349054 12.96149209741472 -5.1798408337122925
ltibia 32.09389839467736
lfoot -12.584783784520283 5.240549138121551
ltoes -28.129191445845127
rfemur -35.1535878960822 2.8028876215226677 13.380108971560018
rtibia 34.422590641538825
rfoot -10.601889179361757 1.6489357437732473
rtoes -0.21638715646329487
lowerback 3.545140939989488 2.654029991695978 -7.4303344892270164
upperback 3.0319686301374427 3.3947301501839906 2.857417087969826
thorax 0.5621866125836075 1.594419967265853 7.042940583930422
lowerneck -14.063693915764553 1.6249180560215883 0.919454809015023
upperneck 39.81977735544827 5.9661869021531 -4.363528680918844
head 17.053575499329277 2.5086568842875097 -0.8836751454387828
lclavicle -7.014205404901119e-15 -5.153636156167681e-15
lhumerus 11.511717178655928 -76.03878322541593 83.58129026868536
lradius 25.42380853027827
lwrist 38.03699098429093
lhand 12.678378383865406 62.64027743569335
lfingers 7.125020000000003
lthumb -142.3380196149945 268.5310096008941
rclavicle -7.014205404901119e-15 -5.153636156167681e-15
rhumerus -8.692516283226702 -2.992874278852229 -104.99698071544802
rradius 33.3367105255724
rwrist -53.697682085384116
rhand -33.911306429144545 -12.546778402624874
rfingers 7.125020000000003
rthumb -7.093916958581435 -42.40787679819054
